<svg xmlns="http://www.w3.org/2000/svg" width="960" height="360" viewBox="0 0 960 360" role="img" aria-labelledby="title desc">
<title id="title">퀀트·경제 데이터 분석 흐름</title>
<desc id="desc">투자 조언이 아닌 데이터 해석 관점의 요약</desc>
<rect width="960" height="360" rx="0" fill="#F7F8F5"/>
<rect x="0" y="0" width="960" height="12" fill="#215A6D"/>
<text x="56" y="54" font-family="Arial, sans-serif" font-size="28" font-weight="700" fill="#1D2528">퀀트·경제 데이터 분석 흐름</text>
<text x="56" y="82" font-family="Arial, sans-serif" font-size="15" fill="#5F686B">투자 조언이 아닌 데이터 해석 관점의 요약</text>
<rect x="56" y="112" width="190" height="104" rx="8" fill="#FFFFFF" stroke="#D6DED9"/>
<rect x="56" y="112" width="190" height="10" rx="5" fill="#215A6D"/>
<circle cx="80" cy="150" r="15" fill="#215A6D"/>
<text x="80" y="156" text-anchor="middle" font-family="Arial, sans-serif" font-size="15" font-weight="700" fill="#FFFFFF">1</text>
<text x="104" y="148" font-family="Arial, sans-serif" font-size="18" font-weight="700" fill="#1D2528">자료 수집</text>
<text x="74" y="184" font-family="Arial, sans-serif" font-size="13" fill="#445055">What US assets are held overs…</text>
<text x="74" y="205" font-family="Arial, sans-serif" font-size="13" fill="#445055">as?</text>
<line x1="258" y1="164" x2="276" y2="164" stroke="#6A7376" stroke-width="2"/>
<path d="M 276 164 l -7 -6 v 12 z" fill="#6A7376"/>
<rect x="288" y="112" width="190" height="104" rx="8" fill="#FFFFFF" stroke="#D6DED9"/>
<rect x="288" y="112" width="190" height="10" rx="5" fill="#4F6F52"/>
<circle cx="312" cy="150" r="15" fill="#4F6F52"/>
<text x="312" y="156" text-anchor="middle" font-family="Arial, sans-serif" font-size="15" font-weight="700" fill="#FFFFFF">2</text>
<text x="336" y="148" font-family="Arial, sans-serif" font-size="18" font-weight="700" fill="#1D2528">팩터 점검</text>
<text x="306" y="184" font-family="Arial, sans-serif" font-size="13" fill="#445055">가치·모멘텀·변동성 신호 분리</text>
<text x="306" y="205" font-family="Arial, sans-serif" font-size="13" fill="#445055"></text>
<line x1="490" y1="164" x2="508" y2="164" stroke="#6A7376" stroke-width="2"/>
<path d="M 508 164 l -7 -6 v 12 z" fill="#6A7376"/>
<rect x="520" y="112" width="190" height="104" rx="8" fill="#FFFFFF" stroke="#D6DED9"/>
<rect x="520" y="112" width="190" height="10" rx="5" fill="#8A5A44"/>
<circle cx="544" cy="150" r="15" fill="#8A5A44"/>
<text x="544" y="156" text-anchor="middle" font-family="Arial, sans-serif" font-size="15" font-weight="700" fill="#FFFFFF">3</text>
<text x="568" y="148" font-family="Arial, sans-serif" font-size="18" font-weight="700" fill="#1D2528">리스크 해석</text>
<text x="538" y="184" font-family="Arial, sans-serif" font-size="13" fill="#445055">금리·물가·섹터 노출 확인</text>
<text x="538" y="205" font-family="Arial, sans-serif" font-size="13" fill="#445055"></text>
<line x1="722" y1="164" x2="740" y2="164" stroke="#6A7376" stroke-width="2"/>
<path d="M 740 164 l -7 -6 v 12 z" fill="#6A7376"/>
<rect x="752" y="112" width="190" height="104" rx="8" fill="#FFFFFF" stroke="#D6DED9"/>
<rect x="752" y="112" width="190" height="10" rx="5" fill="#5A5878"/>
<circle cx="776" cy="150" r="15" fill="#5A5878"/>
<text x="776" y="156" text-anchor="middle" font-family="Arial, sans-serif" font-size="15" font-weight="700" fill="#FFFFFF">4</text>
<text x="800" y="148" font-family="Arial, sans-serif" font-size="18" font-weight="700" fill="#1D2528">포트폴리오/백테스트</text>
<text x="770" y="184" font-family="Arial, sans-serif" font-size="13" fill="#445055">가정과 한계 조건을 함께 기록</text>
<text x="770" y="205" font-family="Arial, sans-serif" font-size="13" fill="#445055"></text>
<g transform="translate(56 268)">
<text x="0" y="0" font-family="Arial, sans-serif" font-size="14" font-weight="700" fill="#1D2528">요약 축</text>
<text x="0" y="30" font-family="Arial, sans-serif" font-size="12" fill="#5F686B">Factor</text>
<rect x="0" y="40" width="160" height="8" rx="4" fill="#E1E6E2"/>
<rect x="0" y="40" width="122" height="8" rx="4" fill="#215A6D"/>
<text x="220" y="30" font-family="Arial, sans-serif" font-size="12" fill="#5F686B">Risk</text>
<rect x="220" y="40" width="160" height="8" rx="4" fill="#E1E6E2"/>
<rect x="220" y="40" width="99" height="8" rx="4" fill="#4F6F52"/>
<text x="440" y="30" font-family="Arial, sans-serif" font-size="12" fill="#5F686B">Portfolio</text>
<rect x="440" y="40" width="160" height="8" rx="4" fill="#E1E6E2"/>
<rect x="440" y="40" width="112" height="8" rx="4" fill="#8A5A44"/>
<text x="660" y="30" font-family="Arial, sans-serif" font-size="12" fill="#5F686B">Backtest</text>
<rect x="660" y="40" width="160" height="8" rx="4" fill="#E1E6E2"/>
<rect x="660" y="40" width="93" height="8" rx="4" fill="#5A5878"/>
</g>
</svg>